{"asset":{"version":"2.0","generator":"VECTARY"},"nodes":[{"translation":[0,0.05189397182444053,0.024352162814236782],"scale":[0.001,0.001,0.001],"rotation":[-1,0,0,2.220446049250313e-16],"name":"學校鞦韆","children":[1,2,3]},{"translation":[3.25,56.5,39.09400177001953],"scale":[1,1,1],"rotation":[0.7071067811865475,0,0,0.7071067811865476],"name":"group_0_30377","mesh":0},{"translation":[7.270994410156931,56.5,39.09400177001953],"scale":[1,1,1],"rotation":[0.7071067811865475,0,0,0.7071067811865476],"name":"group_0_14541540","mesh":1},{"translation":[7.2749673766128,56.5,39.09400177001953],"scale":[1,1,1],"rotation":[0.7071067811865475,0,0,0.7071067811865476],"name":"group_0_16089887","mesh":2}],"materials":[{"pbrMetallicRoughness":{"baseColorFactor":[0.00010718736234124402,0.002932318323938363,0.45907989242416014,1],"metallicFactor":1,"roughnessFactor":0.25},"name":"Zoya","emissiveFactor":[0,0,0],"extensions":{},"alphaMode":"OPAQUE","doubleSided":false},{"pbrMetallicRoughness":{"baseColorFactor":[0.8670237934377415,0.8670237934377415,0.8670237934377415,1],"metallicFactor":1,"roughnessFactor":0.2},"name":"Nana","emissiveFactor":[0,0,0],"extensions":{},"alphaMode":"OPAQUE","doubleSided":false},{"pbrMetallicRoughness":{"baseColorFactor":[0.45907989242416014,0.1332085131842997,0.000023328004666098932,1],"metallicFactor":0,"roughnessFactor":0.22},"name":"Just Perfect","emissiveFactor":[0,0,0],"extensions":{},"alphaMode":"OPAQUE","doubleSided":false}],"meshes":[{"primitives":[{"mode":4,"attributes":{"POSITION":1,"NORMAL":2,"TEXCOORD_0":3},"material":0,"indices":0}]},{"primitives":[{"mode":4,"attributes":{"POSITION":5,"NORMAL":6,"TEXCOORD_0":7},"material":1,"indices":4}]},{"primitives":[{"mode":4,"attributes":{"POSITION":9,"NORMAL":10,"TEXCOORD_0":11},"material":2,"indices":8}]}],"accessors":[{"bufferView":0,"byteOffset":0,"componentType":5125,"count":18465,"type":"SCALAR"},{"bufferView":1,"byteOffset":0,"componentType":5126,"count":17989,"max":[60,19,113],"min":[-66.5,-39.09400177001953,0],"type":"VEC3"},{"bufferView":2,"byteOffset":0,"componentType":5126,"count":17989,"type":"VEC3"},{"bufferView":3,"byteOffset":0,"componentType":5126,"count":17989,"type":"VEC2"},{"bufferView":4,"byteOffset":0,"componentType":5125,"count":100185,"type":"SCALAR"},{"bufferView":5,"byteOffset":0,"componentType":5126,"count":98955,"max":[25.422000885009766,-8.67199993133545,108.57759857177734],"min":[-42.327999114990234,-11.67199993133545,21],"type":"VEC3"},{"bufferView":6,"byteOffset":0,"componentType":5126,"count":98955,"type":"VEC3"},{"bufferView":7,"byteOffset":0,"componentType":5126,"count":98955,"type":"VEC2"},{"bufferView":8,"byteOffset":0,"componentType":5125,"count":1332,"type":"SCALAR"},{"bufferView":9,"byteOffset":0,"componentType":5126,"count":1265,"max":[23.5,-6.671999931335449,21.899999618530273],"min":[-40.75,-14.67199993133545,12],"type":"VEC3"},{"bufferView":10,"byteOffset":0,"componentType":5126,"count":1265,"type":"VEC3"},{"bufferView":11,"byteOffset":0,"componentType":5126,"count":1265,"type":"VEC2"}],"bufferViews":[{"buffer":0,"byteOffset":0,"byteLength":73860,"target":34963},{"buffer":0,"byteOffset":73860,"byteLength":215868,"target":34962},{"buffer":0,"byteOffset":289728,"byteLength":215868,"target":34962},{"buffer":0,"byteOffset":505596,"byteLength":143912,"target":34962},{"buffer":0,"byteOffset":649508,"byteLength":400740,"target":34963},{"buffer":0,"byteOffset":1050248,"byteLength":1187460,"target":34962},{"buffer":0,"byteOffset":2237708,"byteLength":1187460,"target":34962},{"buffer":0,"byteOffset":3425168,"byteLength":791640,"target":34962},{"buffer":0,"byteOffset":4216808,"byteLength":5328,"target":34963},{"buffer":0,"byteOffset":4222136,"byteLength":15180,"target":34962},{"buffer":0,"byteOffset":4237316,"byteLength":15180,"target":34962},{"buffer":0,"byteOffset":4252496,"byteLength":10120,"target":34962}],"scene":0,"scenes":[{"nodes":[0],"name":"Project Name"}],"extensionsUsed":["KHR_texture_transform"],"buffers":[{"byteLength":4262616,"uri":"ProjectName.bin"}]}