{"asset":{"version":"2.0","generator":"VECTARY"},"nodes":[{"translation":[0.0010918515606250026,0.05648058661007338,0.023694969107572593],"scale":[0.001,0.001,0.001],"rotation":[-1,0,0,2.220446049250313e-16],"name":"tinker","children":[1,2,3]},{"translation":[3.1875,56.75,39.09400177001953],"scale":[1,1,1],"rotation":[0.7071067811865475,0,0,0.7071067811865476],"name":"group_0_30377","mesh":0},{"translation":[3.1875,56.75,39.09400177001953],"scale":[1,1,1],"rotation":[0.7071067811865475,0,0,0.7071067811865476],"name":"group_0_14541540","mesh":1},{"translation":[3.1875,56.75,39.09400177001953],"scale":[1,1,1],"rotation":[0.7071067811865475,0,0,0.7071067811865476],"name":"group_0_16089887","mesh":2}],"materials":[{"pbrMetallicRoughness":{"baseColorFactor":[0.0009923743040743253,0.008373117745148581,0.7518950805830509,1],"metallicFactor":0,"roughnessFactor":0.2},"name":"Hudson","emissiveFactor":[0,0,0],"extensions":{},"alphaMode":"OPAQUE","doubleSided":false},{"pbrMetallicRoughness":{"baseColorFactor":[0.8670237934377415,0.8670237934377415,0.8670237934377415,1],"metallicFactor":1,"roughnessFactor":0.01},"name":"Bermuda","emissiveFactor":[0,0,0],"extensions":{},"alphaMode":"OPAQUE","doubleSided":false},{"pbrMetallicRoughness":{"baseColorFactor":[0.7372047873606051,0.3066347662031576,0.00455975492252602,1],"metallicFactor":0,"roughnessFactor":0.2},"name":"Valencia","emissiveFactor":[0,0,0],"extensions":{},"alphaMode":"OPAQUE","doubleSided":false}],"meshes":[{"primitives":[{"mode":4,"attributes":{"POSITION":1,"NORMAL":2,"TEXCOORD_0":3},"material":0,"indices":0}]},{"primitives":[{"mode":4,"attributes":{"POSITION":5,"NORMAL":6,"TEXCOORD_0":7},"material":1,"indices":4}]},{"primitives":[{"mode":4,"attributes":{"POSITION":9,"NORMAL":10,"TEXCOORD_0":11},"material":2,"indices":8}]}],"accessors":[{"bufferView":0,"byteOffset":0,"componentType":5125,"count":16908,"type":"SCALAR"},{"bufferView":1,"byteOffset":0,"componentType":5126,"count":16506,"max":[59.625,19,113.5],"min":[-66,-39.09400177001953,0],"type":"VEC3"},{"bufferView":2,"byteOffset":0,"componentType":5126,"count":16506,"type":"VEC3"},{"bufferView":3,"byteOffset":0,"componentType":5126,"count":16506,"type":"VEC2"},{"bufferView":4,"byteOffset":0,"componentType":5125,"count":99804,"type":"SCALAR"},{"bufferView":5,"byteOffset":0,"componentType":5126,"count":98566,"max":[25.422000885009766,-8.67199993133545,109],"min":[-42.327999114990234,-11.67199993133545,21],"type":"VEC3"},{"bufferView":6,"byteOffset":0,"componentType":5126,"count":98566,"type":"VEC3"},{"bufferView":7,"byteOffset":0,"componentType":5126,"count":98566,"type":"VEC2"},{"bufferView":8,"byteOffset":0,"componentType":5125,"count":1332,"type":"SCALAR"},{"bufferView":9,"byteOffset":0,"componentType":5126,"count":1262,"max":[23.5,-6.671999931335449,21.899999618530273],"min":[-40.75,-14.67199993133545,12],"type":"VEC3"},{"bufferView":10,"byteOffset":0,"componentType":5126,"count":1262,"type":"VEC3"},{"bufferView":11,"byteOffset":0,"componentType":5126,"count":1262,"type":"VEC2"}],"bufferViews":[{"buffer":0,"byteOffset":0,"byteLength":67632,"target":34963},{"buffer":0,"byteOffset":67632,"byteLength":198072,"target":34962},{"buffer":0,"byteOffset":265704,"byteLength":198072,"target":34962},{"buffer":0,"byteOffset":463776,"byteLength":132048,"target":34962},{"buffer":0,"byteOffset":595824,"byteLength":399216,"target":34963},{"buffer":0,"byteOffset":995040,"byteLength":1182792,"target":34962},{"buffer":0,"byteOffset":2177832,"byteLength":1182792,"target":34962},{"buffer":0,"byteOffset":3360624,"byteLength":788528,"target":34962},{"buffer":0,"byteOffset":4149152,"byteLength":5328,"target":34963},{"buffer":0,"byteOffset":4154480,"byteLength":15144,"target":34962},{"buffer":0,"byteOffset":4169624,"byteLength":15144,"target":34962},{"buffer":0,"byteOffset":4184768,"byteLength":10096,"target":34962}],"scene":0,"scenes":[{"nodes":[0],"name":"學校鞦韆"}],"extensionsUsed":["KHR_texture_transform"],"buffers":[{"byteLength":4194864,"uri":"學校鞦韆.bin"}]}