{"asset":{"version":"2.0","generator":"VECTARY"},"nodes":[{"translation":[0.006847732407782803,0.1205429242470745,-0.10387265042862383],"scale":[0.27968401838758333,0.1269593369965454,0.0001446113579183794],"rotation":[0.0034060812353288172,0.011804057641521886,0.004714122264990652,0.9999134163294756],"name":"node_id11","mesh":0},{"translation":[-0.013017758005104647,0.010502020297982721,0.030753269314496172],"scale":[0.002327994210122809,0.0023279962611658734,0.0023279949605878375],"rotation":[-0.7046921908089268,0.009041838094590368,0.0076787038349017366,0.7094139827243912],"name":"node_id15","mesh":1},{"translation":[-0.013017758005104647,0.010502020297982721,0.030753269314496172],"scale":[0.002327994210122809,0.0023279962611658734,0.0023279949605878375],"rotation":[-0.7046921908089268,0.009041838094590368,0.0076787038349017366,0.7094139827243912],"name":"node_id18","mesh":2},{"translation":[-0.013017758005104647,0.010502020297982721,0.030753269314496172],"scale":[0.002327994210122809,0.0023279962611658734,0.0023279949605878375],"rotation":[-0.7046921908089268,0.009041838094590368,0.0076787038349017366,0.7094139827243912],"name":"node_id21","mesh":3},{"translation":[-0.06250417506311969,0.2089862574337367,0.12873035243844413],"scale":[0.00015193342885886363,0.00015193338988764063,0.0001519335419565039],"rotation":[0.0033446997611107365,0.011821521207774983,-0.00046143972321672534,0.9999244230909065],"name":"node_id25","mesh":4},{"translation":[-0.009010612863112954,0.20839702091060025,0.1274615361547049],"scale":[0.00016475899334446531,0.00016475909430619843,0.00016475920625069228],"rotation":[0.0033447114107350573,0.011821529309343,-0.00046144001521477955,0.9999244229560242],"name":"node_id29","mesh":5},{"translation":[0.04640732732918059,0.209697825476296,0.12615991345544253],"scale":[0.00016278415259463822,0.0001627842521814425,0.00016278430835549163],"rotation":[0.003344735836176782,0.011821525527375663,-0.00046143978339504253,0.9999244229191405],"name":"node_id33","mesh":6},{"translation":[0.0671632623960882,0.22505683794840575,0.10182801692986547],"scale":[0.0020590602777862954,0.0020590602777862954,0.002059061735347784],"rotation":[-0.03899439895514539,-1.7266202401133058e-9,6.737976556981093e-11,0.9992394291910858],"name":"node_id36","mesh":7},{"translation":[-0.05358729810687701,0.22152997884326675,0.09851716460743624],"scale":[0.0022237599290142462,0.0022237599290142462,0.0022237615031628355],"rotation":[-0.03899439895514539,-1.7266202401133058e-9,6.737976556981124e-11,0.9992394291910858],"name":"node_id39","mesh":8},{"translation":[-0.00554826122062968,0.07009739661978306,0.9841508586918701],"scale":[1,1,1],"rotation":[1.1102230246251565e-16,0,1.1102230246251565e-16,1],"name":"Camera","camera":0}],"materials":[{"pbrMetallicRoughness":{"baseColorFactor":[1,1,1,1],"baseColorTexture":{"index":0,"extensions":{"KHR_texture_transform":{"offset":[0,0],"scale":[1,1],"rotation":0}},"texCoord":0},"metallicFactor":0,"roughnessFactor":0.2},"name":"Material_60","emissiveFactor":[0,0,0],"extensions":{},"alphaMode":"OPAQUE","doubleSided":false},{"pbrMetallicRoughness":{"baseColorFactor":[1,1,1,1],"baseColorTexture":{"index":1,"extensions":{"KHR_texture_transform":{"offset":[0,0],"scale":[1,1],"rotation":0}},"texCoord":0},"metallicFactor":0,"roughnessFactor":0.2},"name":"Material_61","emissiveFactor":[0,0,0],"extensions":{},"alphaMode":"OPAQUE","doubleSided":false},{"pbrMetallicRoughness":{"baseColorFactor":[1,1,1,1],"baseColorTexture":{"index":2,"extensions":{"KHR_texture_transform":{"offset":[0,0],"scale":[1,1],"rotation":0}},"texCoord":0},"metallicFactor":0,"roughnessFactor":0.2},"name":"Material_62","emissiveFactor":[0,0,0],"extensions":{},"alphaMode":"OPAQUE","doubleSided":false},{"pbrMetallicRoughness":{"baseColorFactor":[1,1,1,1],"baseColorTexture":{"index":3,"extensions":{"KHR_texture_transform":{"offset":[0,0],"scale":[1,1],"rotation":0}},"texCoord":0},"metallicFactor":0,"roughnessFactor":0.2},"name":"Material_63","emissiveFactor":[0,0,0],"extensions":{},"alphaMode":"OPAQUE","doubleSided":false},{"pbrMetallicRoughness":{"baseColorFactor":[1,1,1,1],"baseColorTexture":{"index":4,"extensions":{"KHR_texture_transform":{"offset":[0,0],"scale":[1,1],"rotation":0}},"texCoord":0},"metallicFactor":0,"roughnessFactor":0.2},"name":"Material_64","emissiveFactor":[0,0,0],"extensions":{},"alphaMode":"OPAQUE","doubleSided":false},{"pbrMetallicRoughness":{"baseColorFactor":[1,1,1,1],"baseColorTexture":{"index":5,"extensions":{"KHR_texture_transform":{"offset":[0,0],"scale":[1,1],"rotation":0}},"texCoord":0},"metallicFactor":0,"roughnessFactor":0.2},"name":"Material_65","emissiveFactor":[0,0,0],"extensions":{},"alphaMode":"OPAQUE","doubleSided":false},{"pbrMetallicRoughness":{"baseColorFactor":[1,1,1,1],"baseColorTexture":{"index":6,"extensions":{"KHR_texture_transform":{"offset":[0,0],"scale":[1,1],"rotation":0}},"texCoord":0},"metallicFactor":0,"roughnessFactor":0.2},"name":"Material_66","emissiveFactor":[0,0,0],"extensions":{},"alphaMode":"OPAQUE","doubleSided":false},{"pbrMetallicRoughness":{"baseColorFactor":[1,1,1,1],"baseColorTexture":{"index":7,"extensions":{"KHR_texture_transform":{"offset":[0,0],"scale":[1,1],"rotation":0}},"texCoord":0},"metallicFactor":0,"roughnessFactor":0.2},"name":"Material_67","emissiveFactor":[0,0,0],"extensions":{},"alphaMode":"OPAQUE","doubleSided":false},{"pbrMetallicRoughness":{"baseColorFactor":[1,1,1,1],"baseColorTexture":{"index":7,"extensions":{"KHR_texture_transform":{"offset":[0,0],"scale":[1,1],"rotation":0}},"texCoord":0},"metallicFactor":0,"roughnessFactor":0.2},"name":"Material_68","emissiveFactor":[0,0,0],"extensions":{},"alphaMode":"OPAQUE","doubleSided":false}],"textures":[{"sampler":0,"source":0},{"sampler":0,"source":1},{"sampler":0,"source":2},{"sampler":0,"source":3},{"sampler":0,"source":4},{"sampler":0,"source":5},{"sampler":0,"source":6},{"sampler":0,"source":7}],"images":[{"uri":"6.jpg","mimeType":"image/jpeg"},{"uri":"7.jpg","mimeType":"image/jpeg"},{"uri":"9.jpg","mimeType":"image/jpeg"},{"uri":"11.jpg","mimeType":"image/jpeg"},{"uri":"13.jpg","mimeType":"image/jpeg"},{"uri":"15.jpg","mimeType":"image/jpeg"},{"uri":"17.jpg","mimeType":"image/jpeg"},{"uri":"19.jpg","mimeType":"image/jpeg"}],"samplers":[{"wrapS":10497,"wrapT":10497}],"meshes":[{"primitives":[{"mode":4,"attributes":{"POSITION":1,"NORMAL":2,"TEXCOORD_0":3},"material":0,"indices":0}]},{"primitives":[{"mode":4,"attributes":{"POSITION":5,"NORMAL":6,"TEXCOORD_0":7},"material":1,"indices":4}]},{"primitives":[{"mode":4,"attributes":{"POSITION":9,"NORMAL":10,"TEXCOORD_0":11},"material":2,"indices":8}]},{"primitives":[{"mode":4,"attributes":{"POSITION":13,"NORMAL":14,"TEXCOORD_0":15},"material":3,"indices":12}]},{"primitives":[{"mode":4,"attributes":{"POSITION":17,"NORMAL":18,"TEXCOORD_0":19},"material":4,"indices":16}]},{"primitives":[{"mode":4,"attributes":{"POSITION":21,"NORMAL":22,"TEXCOORD_0":23},"material":5,"indices":20}]},{"primitives":[{"mode":4,"attributes":{"POSITION":25,"NORMAL":26,"TEXCOORD_0":27},"material":6,"indices":24}]},{"primitives":[{"mode":4,"attributes":{"POSITION":29,"NORMAL":30,"TEXCOORD_0":31},"material":7,"indices":28}]},{"primitives":[{"mode":4,"attributes":{"POSITION":33,"NORMAL":34,"TEXCOORD_0":35},"material":8,"indices":32}]}],"accessors":[{"bufferView":0,"byteOffset":0,"componentType":5125,"count":6,"type":"SCALAR"},{"bufferView":1,"byteOffset":0,"componentType":5126,"count":4,"max":[0.5,0.5,0],"min":[-0.5,-0.5,0],"type":"VEC3"},{"bufferView":2,"byteOffset":0,"componentType":5126,"count":4,"type":"VEC3"},{"bufferView":3,"byteOffset":0,"componentType":5126,"count":4,"type":"VEC2"},{"bufferView":4,"byteOffset":0,"componentType":5125,"count":18,"type":"SCALAR"},{"bufferView":5,"byteOffset":0,"componentType":5126,"count":12,"max":[69,65,73.54940032958984],"min":[-53,61,0],"type":"VEC3"},{"bufferView":6,"byteOffset":0,"componentType":5126,"count":12,"type":"VEC3"},{"bufferView":7,"byteOffset":0,"componentType":5126,"count":12,"type":"VEC2"},{"bufferView":8,"byteOffset":0,"componentType":5125,"count":1680,"type":"SCALAR"},{"bufferView":9,"byteOffset":0,"componentType":5126,"count":1014,"max":[71,77.66200256347656,102],"min":[-59,-41,0],"type":"VEC3"},{"bufferView":10,"byteOffset":0,"componentType":5126,"count":1014,"type":"VEC3"},{"bufferView":11,"byteOffset":0,"componentType":5126,"count":1014,"type":"VEC2"},{"bufferView":12,"byteOffset":0,"componentType":5125,"count":366,"type":"SCALAR"},{"bufferView":13,"byteOffset":0,"componentType":5126,"count":258,"max":[52,10,79.06169891357422],"min":[-38,-2,0],"type":"VEC3"},{"bufferView":14,"byteOffset":0,"componentType":5126,"count":258,"type":"VEC3"},{"bufferView":15,"byteOffset":0,"componentType":5126,"count":258,"type":"VEC2"},{"bufferView":16,"byteOffset":0,"componentType":5125,"count":336,"type":"SCALAR"},{"bufferView":17,"byteOffset":0,"componentType":5126,"count":181,"max":[157.19717407226562,139.04605102539062,0],"min":[12.241456031799316,-8.780078887939453,-15],"type":"VEC3"},{"bufferView":18,"byteOffset":0,"componentType":5126,"count":181,"type":"VEC3"},{"bufferView":19,"byteOffset":0,"componentType":5126,"count":181,"type":"VEC2"},{"bufferView":20,"byteOffset":0,"componentType":5125,"count":552,"type":"SCALAR"},{"bufferView":21,"byteOffset":0,"componentType":5126,"count":258,"max":[164.2887725830078,144.0270538330078,0],"min":[10.38413143157959,-10.890674591064453,-15],"type":"VEC3"},{"bufferView":22,"byteOffset":0,"componentType":5126,"count":258,"type":"VEC3"},{"bufferView":23,"byteOffset":0,"componentType":5126,"count":258,"type":"VEC2"},{"bufferView":24,"byteOffset":0,"componentType":5125,"count":420,"type":"SCALAR"},{"bufferView":25,"byteOffset":0,"componentType":5126,"count":225,"max":[163.95108032226562,143.68936157226562,0],"min":[12.663575172424316,-8.611230850219727,-15],"type":"VEC3"},{"bufferView":26,"byteOffset":0,"componentType":5126,"count":225,"type":"VEC3"},{"bufferView":27,"byteOffset":0,"componentType":5126,"count":225,"type":"VEC2"},{"bufferView":28,"byteOffset":0,"componentType":5125,"count":59418,"type":"SCALAR"},{"bufferView":29,"byteOffset":0,"componentType":5126,"count":12003,"max":[9.483110427856445,19.88368034362793,8.327095031738281],"min":[-5.475526809692383,-0.0004519224166870117,-8.327095031738281],"type":"VEC3"},{"bufferView":30,"byteOffset":0,"componentType":5126,"count":12003,"type":"VEC3"},{"bufferView":31,"byteOffset":0,"componentType":5126,"count":12003,"type":"VEC2"},{"bufferView":32,"byteOffset":0,"componentType":5125,"count":59418,"type":"SCALAR"},{"bufferView":33,"byteOffset":0,"componentType":5126,"count":12003,"max":[9.483110427856445,19.88368034362793,8.327095031738281],"min":[-5.475526809692383,-0.0004519224166870117,-8.327095031738281],"type":"VEC3"},{"bufferView":34,"byteOffset":0,"componentType":5126,"count":12003,"type":"VEC3"},{"bufferView":35,"byteOffset":0,"componentType":5126,"count":12003,"type":"VEC2"}],"bufferViews":[{"buffer":0,"byteOffset":0,"byteLength":24,"target":34963},{"buffer":0,"byteOffset":24,"byteLength":48,"target":34962},{"buffer":0,"byteOffset":72,"byteLength":48,"target":34962},{"buffer":0,"byteOffset":120,"byteLength":32,"target":34962},{"buffer":0,"byteOffset":152,"byteLength":72,"target":34963},{"buffer":0,"byteOffset":224,"byteLength":144,"target":34962},{"buffer":0,"byteOffset":368,"byteLength":144,"target":34962},{"buffer":0,"byteOffset":512,"byteLength":96,"target":34962},{"buffer":0,"byteOffset":608,"byteLength":6720,"target":34963},{"buffer":0,"byteOffset":7328,"byteLength":12168,"target":34962},{"buffer":0,"byteOffset":19496,"byteLength":12168,"target":34962},{"buffer":0,"byteOffset":31664,"byteLength":8112,"target":34962},{"buffer":0,"byteOffset":39776,"byteLength":1464,"target":34963},{"buffer":0,"byteOffset":41240,"byteLength":3096,"target":34962},{"buffer":0,"byteOffset":44336,"byteLength":3096,"target":34962},{"buffer":0,"byteOffset":47432,"byteLength":2064,"target":34962},{"buffer":0,"byteOffset":49496,"byteLength":1344,"target":34963},{"buffer":0,"byteOffset":50840,"byteLength":2172,"target":34962},{"buffer":0,"byteOffset":53012,"byteLength":2172,"target":34962},{"buffer":0,"byteOffset":55184,"byteLength":1448,"target":34962},{"buffer":0,"byteOffset":56632,"byteLength":2208,"target":34963},{"buffer":0,"byteOffset":58840,"byteLength":3096,"target":34962},{"buffer":0,"byteOffset":61936,"byteLength":3096,"target":34962},{"buffer":0,"byteOffset":65032,"byteLength":2064,"target":34962},{"buffer":0,"byteOffset":67096,"byteLength":1680,"target":34963},{"buffer":0,"byteOffset":68776,"byteLength":2700,"target":34962},{"buffer":0,"byteOffset":71476,"byteLength":2700,"target":34962},{"buffer":0,"byteOffset":74176,"byteLength":1800,"target":34962},{"buffer":0,"byteOffset":75976,"byteLength":237672,"target":34963},{"buffer":0,"byteOffset":313648,"byteLength":144036,"target":34962},{"buffer":0,"byteOffset":457684,"byteLength":144036,"target":34962},{"buffer":0,"byteOffset":601720,"byteLength":96024,"target":34962},{"buffer":0,"byteOffset":697744,"byteLength":237672,"target":34963},{"buffer":0,"byteOffset":935416,"byteLength":144036,"target":34962},{"buffer":0,"byteOffset":1079452,"byteLength":144036,"target":34962},{"buffer":0,"byteOffset":1223488,"byteLength":96024,"target":34962}],"cameras":[{"name":"Camera","type":"orthographic","extras":{"targetDistance":0.9332003935869947},"orthographic":{"xmag":0.9755289045604659,"ymag":0.5884739077587402,"zfar":55.42715767207301,"znear":0.012796880868847869}}],"scene":0,"scenes":[{"nodes":[0,1,2,3,4,5,6,7,8,9],"name":"學校司令台"}],"extensionsUsed":["KHR_texture_transform"],"buffers":[{"byteLength":1319512,"uri":"學校司令台.bin"}]}